<svg width="33" height="41" viewBox="0 0 33 41" fill="none" xmlns="http://www.w3.org/2000/svg">
<g clip-path="url(#clip0_1_275)">
<path d="M7.60072 41C7.02828 41 6.56185 40.5131 6.57245 39.9288C6.58305 39.3444 6.55125 38.6303 6.39224 38.3706C6.08482 37.862 2.52298 33.1441 1.91874 32.3001C1.3145 31.4561 0.265029 29.8113 0.0742161 28.7184C-0.116597 27.6255 0.0742161 22.1718 0.0742161 22.1718C0.0742161 22.1718 0.360435 20.6569 1.3887 20.6569C2.41697 20.6569 3.39224 21.4252 3.49824 22.8752C3.60425 24.3252 3.61485 27.4524 3.65725 27.9393C3.69966 28.4263 3.81627 28.7509 4.2933 29.2378C4.77033 29.7248 8.25796 33.2848 8.25796 33.2848L8.57598 32.9169L5.42757 29.6815C5.42757 29.6815 4.69612 28.9781 4.48411 28.7076C4.19789 28.3505 3.67846 27.4524 4.2827 26.8789C4.88694 26.3054 5.42757 25.7968 6.78446 27.0304C8.14135 28.2639 9.40284 30.1576 10.6325 30.8068C11.8622 31.4561 12.7315 31.8997 13.4523 33.3173C14.1732 34.7348 14.364 36.228 14.0035 37.4833C13.8021 38.1866 13.7385 39.2038 13.7279 39.9612C13.7173 40.5239 13.2615 40.9784 12.6997 40.9784H7.59012L7.60072 41Z" fill="#1F3364"/>
<path d="M25.3993 41C25.9717 41 26.4382 40.5131 26.4276 39.9288C26.417 39.3444 26.4488 38.6303 26.6078 38.3706C26.9152 37.862 30.477 33.1441 31.0813 32.3001C31.6855 31.4561 32.735 29.8113 32.9258 28.7184C33.106 27.6255 32.9258 22.1718 32.9258 22.1718C32.9258 22.1718 32.6396 20.6569 31.6113 20.6569C30.583 20.6569 29.6078 21.4252 29.5018 22.8752C29.3958 24.3252 29.3852 27.4524 29.3428 27.9393C29.3003 28.4263 29.1837 28.7509 28.7067 29.2378L24.742 33.2848L24.424 32.9169L27.5724 29.6815C27.5724 29.6815 28.3039 28.9781 28.5159 28.7076C28.8021 28.3505 29.3215 27.4524 28.7173 26.8789C28.1131 26.3054 27.5724 25.7968 26.2155 27.0304C24.8587 28.2639 23.5972 30.1576 22.3675 30.8068C21.1378 31.4561 20.2685 31.8997 19.5477 33.3173C18.8374 34.7348 18.636 36.228 18.9965 37.4833C19.1979 38.1866 19.2615 39.2038 19.2721 39.9612C19.2827 40.5239 19.7385 40.9784 20.3003 40.9784H25.4099L25.3993 41Z" fill="#1F3364"/>
<path d="M10.8233 12.9417L12.0742 15.5278C12.1908 15.7659 12.4028 15.9282 12.6573 15.9607L15.4558 16.3719C16.0919 16.4692 16.3569 17.27 15.8905 17.7353L13.8657 19.7479C13.6855 19.9319 13.6007 20.1916 13.6431 20.4513L14.1201 23.2972C14.2262 23.9464 13.5583 24.4442 12.9859 24.1412L10.4841 22.7994C10.2615 22.6804 9.98587 22.6804 9.75266 22.7994L7.25089 24.1412C6.67845 24.4442 6.01061 23.9572 6.11662 23.2972L6.59365 20.4513C6.63605 20.1916 6.55124 19.9319 6.37103 19.7479L4.3463 17.7353C3.87987 17.27 4.13428 16.4692 4.78093 16.3719L7.57951 15.9607C7.83393 15.9282 8.05654 15.7551 8.16255 15.5278L9.41343 12.9417C9.69965 12.3465 10.5265 12.3465 10.8127 12.9417H10.8233Z" fill="#1F3364"/>
<path d="M23.576 12.9417L24.8269 15.5278C24.9435 15.7659 25.1555 15.9282 25.4099 15.9607L28.2085 16.3719C28.8445 16.4692 29.1096 17.27 28.6431 17.7353L26.6184 19.7479C26.4382 19.9319 26.3534 20.1916 26.3958 20.4513L26.8728 23.2972C26.9788 23.9464 26.311 24.4442 25.7385 24.1412L23.2368 22.7994C23.0141 22.6804 22.7385 22.6804 22.5053 22.7994L20.0035 24.1412C19.4311 24.4442 18.7633 23.9572 18.8693 23.2972L19.3463 20.4513C19.3887 20.1916 19.3039 19.9319 19.1237 19.7479L17.099 17.7353C16.6325 17.27 16.8869 16.4692 17.5336 16.3719L20.3322 15.9607C20.5866 15.9282 20.8092 15.7551 20.9152 15.5278L22.1661 12.9417C22.4523 12.3465 23.2792 12.3465 23.5654 12.9417H23.576Z" fill="#1F3364"/>
<path d="M17.3534 0.443672L18.6042 3.02984C18.7208 3.2679 18.9329 3.43021 19.1873 3.46267L21.9859 3.87386C22.6219 3.97125 22.8869 4.77199 22.4205 5.23729L20.3958 7.24995C20.2155 7.43391 20.1307 7.69361 20.1731 7.95331L20.6502 10.7992C20.7562 11.4484 20.0883 11.9462 19.5159 11.6432L17.0141 10.3014C16.7915 10.1824 16.5159 10.1824 16.2827 10.3014L13.7809 11.6432C13.2085 11.9462 12.5406 11.4592 12.6466 10.7992L13.1237 7.95331C13.1661 7.69361 13.0813 7.43391 12.9011 7.24995L10.8763 5.23729C10.4099 4.77199 10.6643 3.97125 11.311 3.87386L14.1095 3.46267C14.364 3.43021 14.5866 3.25708 14.6926 3.02984L15.9435 0.443672C16.2297 -0.151471 17.0565 -0.151471 17.3428 0.443672H17.3534Z" fill="#1F3364"/>
</g>
<defs>
<clipPath id="clip0_1_275">
<rect width="33" height="41" fill="white"/>
</clipPath>
</defs>
</svg>
