<svg width="36" height="42" viewBox="0 0 36 42" fill="none" xmlns="http://www.w3.org/2000/svg">
<g clip-path="url(#clip0_1_243)">
<path d="M18.0857 42C17.3908 42 16.6959 41.7735 16.1343 41.3204L1.15177 29.3339C0.418826 28.7488 0 27.871 0 26.9366V3.08629C0 1.38742 1.39926 0 3.11264 0H32.8969C34.6103 0 36.0095 1.38742 36.0095 3.08629V26.9461C36.0095 27.871 35.5907 28.7488 34.8673 29.3339L20.0656 41.311C19.4944 41.7735 18.7996 42 18.0952 42H18.0857ZM3.11264 1.41573C2.1798 1.41573 1.42782 2.16135 1.42782 3.08629V26.9366C1.42782 27.4463 1.65627 27.9182 2.05606 28.2391L17.0291 40.2256C17.6478 40.7164 18.5426 40.7164 19.1518 40.2256L33.9535 28.2485C34.3437 27.9276 34.5722 27.4557 34.5722 26.9555V3.08629C34.5722 2.16135 33.8107 1.41573 32.8874 1.41573H3.11264Z" fill="#1F3364"/>
<path d="M29.8985 4.52091H6.10153C5.03543 4.52091 4.16922 5.37979 4.16922 6.43687V26.0023C4.16922 26.578 4.43575 27.1254 4.88313 27.4935L16.8482 37.0733C17.5621 37.6396 18.5711 37.6396 19.2755 37.0733L31.1073 27.5029C31.5547 27.1443 31.8117 26.5969 31.8117 26.0211V6.42743C31.8117 5.37035 30.9455 4.51147 29.8794 4.51147L29.8985 4.52091ZM26.7287 15.3277L17.4479 24.3506C17.0005 24.7847 16.3057 24.7847 15.8488 24.3506L10.6325 19.3672C10.4135 19.1596 10.2898 18.867 10.2803 18.565C10.2803 18.2629 10.3945 17.9704 10.6039 17.7533L10.9466 17.4135C11.1655 17.187 11.4701 17.0737 11.7652 17.0737C12.0603 17.0737 12.3363 17.1775 12.5553 17.3852L16.6769 21.2737L24.568 13.289C24.9773 12.8737 25.6341 12.836 26.091 13.1946L26.6335 13.6193C26.9001 13.827 27.0524 14.1196 27.0714 14.4499C27.0904 14.7802 26.9667 15.0917 26.7287 15.3182V15.3277Z" fill="#1F3364"/>
</g>
<defs>
<clipPath id="clip0_1_243">
<rect width="36" height="42" fill="white"/>
</clipPath>
</defs>
</svg>
