<svg width="43" height="42" viewBox="0 0 43 42" fill="none" xmlns="http://www.w3.org/2000/svg">
<g clip-path="url(#clip0_1_247)">
<path d="M0 24.072C0 22.9045 0 21.7271 0 20.5596C0 18.5907 1.4287 16.9483 3.37333 16.6515C3.96201 16.5591 4.28942 16.2195 4.35556 15.6324C5.26834 7.66775 11.132 1.47411 19.1287 0.227463C24.3872 -0.593738 29.1098 0.801315 33.1677 4.24442C36.5312 7.09389 38.4857 10.7547 39.1008 15.0981C39.2298 16.0183 39.3389 16.6218 40.4502 16.9285C42.0674 17.3738 42.9702 18.9172 42.9702 20.5992C42.9702 22.855 42.9008 25.1207 42.9901 27.3766C43.0794 29.3851 41.6209 31.631 38.7337 31.6607C38.2277 31.6607 37.7317 31.6607 37.2257 31.6607C36.9975 31.6607 36.8486 31.7299 36.7494 31.9476C34.9437 35.9448 31.6299 37.9928 27.5422 39.0416C26.9866 39.1801 26.431 39.2889 25.8655 39.3879C25.6174 39.4275 25.4984 39.5462 25.4091 39.7738C24.8138 41.2776 23.7423 41.9999 22.1251 42.0098C21.6191 42.0098 21.123 42.0296 20.617 41.9405C19.0295 41.6635 17.8191 40.1794 17.9481 38.6557C18.0969 36.9243 19.4264 35.6579 21.123 35.6381C21.5397 35.6381 21.9663 35.6381 22.383 35.6381C23.5438 35.6579 24.4765 36.1427 25.0718 37.1321C25.3396 37.5773 25.5778 37.6663 26.0738 37.5674C28.3558 37.1123 30.4988 36.3405 32.3343 34.8663C33.2967 34.0946 34.0905 33.1646 34.7254 32.1059C34.9437 31.7497 34.8544 31.6508 34.4575 31.6607C33.9416 31.6805 33.4158 31.6805 32.8999 31.6607C32.1657 31.631 31.8383 31.2847 31.8383 30.5525C31.8383 26.2685 31.8383 21.9844 31.8383 17.7003C31.8383 16.9483 32.1557 16.6218 32.8899 16.5822C33.4555 16.5526 33.515 16.4833 33.4257 15.9094C32.8304 12.1596 30.9354 9.25078 27.6414 7.35114C20.7261 3.37375 12.0448 7.21262 10.2886 14.9794C10.239 15.1872 10.1994 15.4048 10.1696 15.6225C10.1001 16.0974 9.90171 16.5723 10.6756 16.7405C11.1022 16.8296 11.1617 17.3243 11.1518 17.7497C11.1518 20.7971 11.1518 23.8444 11.1518 26.8819C11.1518 28.0988 11.1518 29.3257 11.1518 30.5427C11.1518 31.2649 10.8443 31.6508 10.1398 31.6508C7.90748 31.6508 5.67513 31.7893 3.4527 31.5815C1.52792 31.3836 0.00992155 29.6621 0 27.7328C0 26.5158 0 25.2889 0 24.072Z" fill="#1F3364"/>
<path d="M25.7663 17.2056H17.6405C14.6839 17.2056 12.2829 19.6 12.2829 22.5484V25.2989C12.2829 28.2374 14.6839 30.6417 17.6405 30.6417H25.7663C28.713 30.6417 31.1239 28.2473 31.1239 25.2989V22.5484C31.1239 19.6099 28.7229 17.2056 25.7663 17.2056ZM16.9361 25.0021C16.3408 25.0021 15.8546 24.5173 15.8546 23.9236C15.8546 23.33 16.3408 22.8452 16.9361 22.8452C17.5314 22.8452 18.0175 23.33 18.0175 23.9236C18.0175 24.5173 17.5314 25.0021 16.9361 25.0021ZM21.6984 25.0021C21.1031 25.0021 20.617 24.5173 20.617 23.9236C20.617 23.33 21.1031 22.8452 21.6984 22.8452C22.2937 22.8452 22.7799 23.33 22.7799 23.9236C22.7799 24.5173 22.2937 25.0021 21.6984 25.0021ZM26.4608 25.0021C25.8655 25.0021 25.3793 24.5173 25.3793 23.9236C25.3793 23.33 25.8655 22.8452 26.4608 22.8452C27.0561 22.8452 27.5422 23.33 27.5422 23.9236C27.5422 24.5173 27.0561 25.0021 26.4608 25.0021Z" fill="#1F3364"/>
</g>
<defs>
<clipPath id="clip0_1_247">
<rect width="43" height="42" fill="white"/>
</clipPath>
</defs>
</svg>
