<svg width="42" height="42" viewBox="0 0 42 42" fill="none" xmlns="http://www.w3.org/2000/svg">
<path d="M21.0073 42C15.8816 41.9128 11.432 40.3205 7.62584 37.1251C3.2853 33.4934 0.711516 28.8257 0.122599 23.1765C-0.477224 17.3309 1.12594 12.0743 4.88847 7.57016C8.88002 2.78248 14.0712 0.219598 20.2876 0.0123866C25.686 -0.162107 30.5391 1.50649 34.6506 5.0509C38.7948 8.62803 41.2486 13.154 41.8376 18.6069C42.5028 24.8232 40.7797 30.3634 36.5918 35.0093C32.4149 39.6334 27.1037 41.8909 21.0073 42ZM26.3403 8.64984C26.5802 8.84614 26.7438 8.96611 26.8856 9.09698C27.0383 9.22785 27.191 9.36963 27.3328 9.52231C27.8126 10.024 27.7254 10.5475 27.1474 10.7874C26.8311 10.5366 26.5148 10.3184 26.2313 10.0567C25.9368 9.78405 25.446 9.59865 25.6205 9.04245C25.6751 8.85705 25.8059 8.69346 25.8496 8.50806C25.8823 8.37719 25.8496 8.22451 25.795 8.09364C25.7841 8.06092 25.5551 8.07183 25.4678 8.12636C25.1298 8.33357 24.8026 8.5735 24.4645 8.79162C24.29 8.90067 24.0937 9.06426 23.9083 9.07517C23.2976 9.10789 22.6541 9.18423 22.1634 8.66074C21.858 9.10789 21.3127 9.46778 21.9016 10.0567C22.2506 10.0894 22.6432 10.133 23.0249 10.1439C23.6902 10.1658 24.181 10.4602 24.4863 11.0491C24.5299 11.1255 24.4863 11.2563 24.4863 11.3545C24.4318 11.3763 24.3882 11.3872 24.3336 11.409C24.17 11.1909 24.0065 10.9837 23.832 10.7547C23.5811 10.951 23.4284 11.0928 23.6902 11.3327C23.9301 11.5617 24.0174 11.8453 23.9628 12.1724C23.9301 12.4233 23.8756 12.6632 23.832 12.9249C23.7338 12.9249 23.6357 12.9249 23.5484 12.9249C22.8723 12.9249 22.5487 13.263 22.5778 13.9392C23.0577 14.2882 23.6793 14.43 23.9519 15.0516C23.6248 15.2261 23.363 15.2261 23.0904 14.9752C22.8395 14.7353 22.556 14.5281 22.2724 14.3209C21.8253 14.0046 21.4327 13.5248 20.811 13.7865C20.582 14.5935 20.8329 15.2043 21.4872 15.6732C21.5854 15.7496 21.6617 15.8477 21.7599 15.9241C22.2288 16.273 22.3597 16.7638 22.3161 17.3091C22.3051 17.4509 22.2506 17.6472 22.1416 17.7235C21.8253 17.9525 21.4872 18.1707 21.1382 18.3343C20.7456 18.5197 20.3312 18.6396 19.9495 18.7814C19.9822 19.0868 20.2767 19.3921 19.7423 19.6211C19.6332 19.3158 19.5241 19.0322 19.4151 18.7596C19.4478 18.7487 19.4805 18.7269 19.5132 18.716C19.306 18.6505 19.0988 18.5851 18.8589 18.5087C18.8153 18.8141 18.4227 18.9014 18.5753 19.3158C18.6844 19.5884 18.6408 19.9156 18.9352 20.1228C19.426 20.4609 20.004 20.7445 19.8622 21.5406C19.775 21.606 19.6332 21.6933 19.4805 21.7914C19.0552 22.075 18.8044 22.0532 18.4663 21.6933C18.2154 21.4206 17.9646 21.148 17.7138 20.8753C17.6811 20.8753 17.6483 20.8971 17.6156 20.908C17.6047 21.1698 17.4738 21.5079 17.5938 21.6933C18.0737 22.4676 18.6299 23.1765 19.1424 23.929C19.2515 24.0926 19.2624 24.3216 19.3169 24.5179C19.2733 24.5397 19.2188 24.5615 19.1752 24.5833C18.7935 24.2016 18.4008 23.8308 18.0191 23.4382C17.6592 23.0783 17.1794 22.762 17.0049 22.3258C16.8304 21.8787 16.9286 21.3007 16.9722 20.7881C17.0049 20.3737 16.8522 20.0901 16.5578 19.8393C16.2851 19.6211 16.0343 19.3703 15.7616 19.1413C15.4344 18.8686 15.1291 18.5306 14.6274 18.6614C14.562 18.6832 14.4747 18.6287 14.3984 18.6069C13.7004 18.4215 13.1333 18.6941 12.817 19.3267C12.588 19.7738 12.5008 20.2428 12.4571 20.7335C12.4135 21.257 12.3917 21.7914 12.0318 22.2386C11.8028 22.5221 11.4756 22.5221 11.2902 22.1949C10.8649 21.4861 10.4287 20.7881 10.0142 20.0792C9.9597 19.981 9.92698 19.8611 9.93789 19.7411C9.94879 19.4685 10.0033 19.2067 10.0142 18.945C10.0251 18.4433 9.67614 18.0616 9.17447 18.0071C7.88758 17.8435 6.60069 17.6799 5.31379 17.5163C4.72488 17.44 4.05962 16.7856 3.98328 16.2294H3.44889C3.44889 16.3821 3.4707 16.5239 3.44889 16.6548C3.37255 17.0583 3.53614 17.2873 3.91784 17.44C4.82303 17.8217 5.70641 18.2361 6.65522 18.6614C6.70975 18.8468 6.60069 19.0322 6.34985 19.1849C5.94634 19.4357 5.58644 19.7738 5.17202 19.9919C4.56129 20.33 4.14687 21.0062 3.29621 20.9735C2.81635 20.9517 2.28196 20.6245 2.31468 20.1119C2.3474 19.6757 2.10747 19.4357 1.83482 19.1304C1.82392 19.2613 1.83482 19.3376 1.8021 19.4139C1.58399 20.101 1.75848 20.7226 2.162 21.2679C2.29287 21.4424 2.62004 21.5842 2.84907 21.5733C3.26349 21.5515 3.66701 21.3552 4.08143 21.3007C4.40861 21.257 4.77941 21.0389 5.11749 21.3988C5.03024 21.5079 4.93209 21.6169 4.85575 21.7369C4.08143 22.8602 3.38346 24.0489 2.3583 24.9759C2.27106 25.0523 2.20562 25.2595 2.23834 25.3685C2.5328 26.3283 2.79454 27.2989 3.16534 28.2259C3.86331 29.9272 4.77941 31.4976 5.93543 32.9372C7.12417 34.4204 8.4874 35.7073 10.0469 36.787C11.781 37.9866 13.6677 38.8918 15.6962 39.4807C17.0049 39.8625 18.3463 40.1242 19.6986 40.2005C21.2691 40.2987 22.8504 40.1787 24.41 39.8952C26.5257 39.5135 28.4997 38.7828 30.3755 37.7467C32.6439 36.4925 34.5633 34.813 36.1665 32.7954C37.7915 30.7451 38.9584 28.444 39.591 25.9029C39.8636 24.8014 40.0599 23.6563 40.1799 22.533C40.278 21.6605 40.2453 20.7554 40.1799 19.872C40.1144 18.9014 40.0272 17.9198 39.82 16.971C39.4165 15.0189 38.7185 13.1758 37.7261 11.4417C36.461 9.22785 34.8142 7.34113 32.8075 5.77069C31.586 4.81097 30.2664 4.03665 28.8378 3.39321C26.8311 2.48802 24.7262 1.93182 22.556 1.79004C21.0619 1.69189 19.546 1.79004 18.0519 1.95363C15.9579 2.19356 13.9731 2.86973 12.1082 3.86216C11.661 4.10209 11.2248 4.35292 10.8322 4.58195C11.2575 4.75644 11.6828 4.87641 12.0427 5.10543C12.5008 5.39989 12.9697 5.50895 13.4932 5.47623C13.864 5.45442 14.2348 5.49804 14.5947 5.47623C15.2709 5.4217 15.8598 5.50895 16.3724 6.03243C16.6886 6.35961 16.9286 6.28326 17.2666 5.95609C17.4302 5.80341 17.6156 5.57438 17.801 5.57438C18.3463 5.57438 18.9025 5.61801 19.4478 5.70525C19.8295 5.77069 20.1894 5.9779 20.5711 6.03243C21.1927 6.13058 21.8253 6.17421 22.4578 6.20692C23.8211 6.27236 25.1952 6.31598 26.5584 6.38142C27.1801 6.41413 27.8126 6.40323 28.4015 6.68678C28.8487 6.9049 29.3067 7.0903 29.8193 7.31932C29.154 7.77737 28.5433 7.21026 27.8562 7.42838C28.0634 7.61378 28.2379 7.76646 28.4342 7.94096C28.2161 8.00639 28.0089 8.06092 27.7908 8.12636C27.7908 8.25723 27.7799 8.36629 27.769 8.50806C27.3 8.55169 26.8529 8.59531 26.2858 8.63893L26.3403 8.64984ZM3.31802 13.3176C3.76516 13.6447 3.75425 13.7102 3.33983 14.1028C3.26349 14.1791 3.24168 14.3318 3.19806 14.4518C3.63429 14.5281 4.00509 14.6044 4.3977 14.6481C4.51767 14.659 4.65944 14.5608 4.77941 14.5063C4.71397 14.3427 4.65944 14.1791 4.5831 14.0155C4.51767 13.8847 4.44133 13.7647 4.36498 13.6447C4.28864 13.5139 4.23411 13.3394 4.12505 13.2412C3.96147 13.0885 3.74335 12.9795 3.53614 12.8486C3.44889 13.0231 3.38346 13.1649 3.30711 13.3066L3.31802 13.3176Z" fill="#1F3364"/>
<path d="M20.1021 34.1805C20.2439 33.8969 20.2984 33.6352 20.462 33.5043C20.6583 33.3516 20.6911 33.2099 20.702 33.0026C20.7238 32.2829 20.7456 31.5631 20.7892 30.8542C20.7892 30.7669 20.8219 30.647 20.8874 30.6034C21.2691 30.3307 21.5962 29.9163 22.1524 30.0144C22.4687 30.069 22.6214 29.8836 22.7959 29.6764C23.0794 29.3383 23.3739 29.0002 23.6575 28.6512C23.9737 28.2695 24.3991 28.2913 24.8571 28.2695C24.8789 28.3676 24.8898 28.4658 24.9334 28.6621C25.097 28.564 25.2388 28.4767 25.3806 28.3895C25.4024 28.3786 25.3806 28.324 25.4024 28.3131C25.7296 28.0514 25.7623 27.4406 26.4057 27.517C26.842 27.5715 27.2891 27.4952 27.649 27.8442C27.7363 27.9314 27.878 27.9641 27.998 28.0187C27.7908 28.4222 27.4636 28.4876 27.0819 28.4004C26.9619 29.1747 27.1364 29.2837 28.3252 29.2292C28.3906 28.7166 28.4669 28.1932 28.5324 27.626C28.8705 27.5388 29.0995 27.6042 29.3285 27.975C29.623 28.444 29.6993 28.9238 29.6339 29.4364C29.5684 29.9272 29.9065 30.1453 30.201 30.3852C30.6154 30.7124 30.8117 31.4213 30.6481 31.923C30.3864 32.6973 29.9392 33.2862 29.2849 33.7661C29.0013 33.9733 28.7614 34.2459 28.5324 34.5186C28.0852 35.0311 27.5509 35.1293 26.9074 35.0093C26.5911 34.9439 26.2531 34.9766 25.9259 35.0093C25.675 35.0311 25.5551 34.9112 25.4678 34.7149C25.337 34.3986 25.1952 34.0823 25.0534 33.7661C24.8353 33.2862 24.6172 33.1771 24.0937 33.308C24.0283 33.3189 23.9628 33.3734 23.9083 33.3625C22.6214 33.1989 21.5308 33.8424 20.3639 34.1805C20.3421 34.1805 20.3094 34.1805 20.113 34.1805H20.1021Z" fill="#1F3364"/>
<path d="M22.4142 22.4675C22.4687 23.0019 22.5123 23.5363 22.5887 24.0598C22.6759 24.7141 22.1961 25.1068 21.8798 25.5539C21.7926 25.6848 21.4327 25.6084 21.1927 25.663C20.6474 25.772 20.2766 25.4994 20.0694 25.0522C19.9604 24.8232 20.004 24.5287 19.9604 24.267C19.8949 23.9071 20.1894 23.8853 20.3966 23.7653C20.7783 23.5581 21.1709 23.3618 21.5417 23.1219C21.6944 23.0237 21.7926 22.8383 21.9234 22.6966C22.0216 22.5984 22.1306 22.5003 22.2288 22.4021C22.2942 22.4239 22.3488 22.4457 22.4142 22.4675Z" fill="#1F3364"/>
<path d="M30.0374 26.9607H30.5064C30.5064 27.0698 30.5173 27.168 30.5282 27.277H29.6448V26.3391C29.3503 26.4918 29.1213 26.5572 28.9686 26.699C28.5215 27.1243 27.9762 26.9935 27.4418 27.0371V26.5572C27.5509 26.4591 27.649 26.3718 27.7472 26.2846C27.6381 26.1755 27.5509 26.0228 27.4309 25.9792C27.0819 25.8702 26.722 25.7611 26.3512 25.7284C25.9477 25.6957 25.915 25.3358 25.7187 25.1177C25.6969 25.0958 25.9259 24.8123 26.0568 24.6705C26.3621 24.3542 26.6021 24.3324 26.7984 24.6487C26.8856 24.7905 26.8638 25.0086 26.8965 25.2267C27.0819 25.2049 27.3 25.2485 27.4309 25.1613C27.8235 24.8777 28.1834 24.9977 28.5542 25.1613C28.9359 25.3358 29.3067 25.5539 29.7102 25.6957C30.0156 25.8047 30.0919 25.9792 30.0701 26.2737C30.0483 26.4918 30.0701 26.699 30.0701 26.9389L30.0374 26.9607Z" fill="#1F3364"/>
<path d="M18.5753 26.3391C18.728 26.3173 18.848 26.2955 18.9679 26.2846C17.8883 25.3685 17.1903 24.1688 16.2524 23.1873C16.416 23.0673 16.5359 22.9692 16.6668 22.871C17.1903 23.34 17.7247 23.7871 18.2372 24.267C18.3681 24.3979 18.4227 24.6269 18.4881 24.8232C18.5753 25.0849 18.7716 25.1067 19.0007 25.0958C19.2951 25.0849 19.6005 25.0958 19.8949 25.0958C19.9604 25.4594 19.7641 25.6593 19.306 25.6957C19.3387 25.8701 19.3715 26.0446 19.4042 26.2409C20.0476 26.2955 20.7892 26.0665 21.3236 26.8517C20.8438 26.819 20.4511 26.7862 20.0585 26.7644C19.6768 26.7426 19.2951 26.7535 18.9134 26.7426C18.5753 26.7426 18.5753 26.7426 18.5644 26.3609L18.5753 26.3391Z" fill="#1F3364"/>
<path d="M29.2304 36.6998C29.3503 36.5362 29.4485 36.3399 29.6012 36.2199C30.0374 35.8709 30.4736 35.511 30.9535 35.2275C31.2589 35.053 31.6406 34.9875 31.9896 34.9221C32.6439 34.7912 32.8075 34.6276 32.8402 33.9951C32.8511 33.7661 32.9057 33.548 32.9493 33.2971H33.5709V33.9951C33.6473 33.9951 33.7127 33.9951 33.7454 34.0169C33.8545 34.0823 33.9635 34.1587 34.0726 34.235C33.9962 34.3332 33.9417 34.464 33.8545 34.5186C32.8402 35.1184 31.8042 35.6964 30.7899 36.318C30.3428 36.5907 29.9065 36.8415 29.2413 36.6888L29.2304 36.6998Z" fill="#1F3364"/>
<path d="M23.0031 25.6084V26.2082C22.8613 26.2082 22.7414 26.2082 22.6214 26.2082C22.556 25.2158 22.3924 24.9759 23.6575 24.5833C23.6575 25.0522 23.6575 25.4993 23.6575 25.9574C23.6575 26.0228 23.5375 26.0774 23.483 26.1319C23.4394 26.0664 23.363 26.001 23.3521 25.9247C23.2867 25.6084 23.2976 25.5975 23.0249 25.6084H23.0031Z" fill="#1F3364"/>
<path d="M27.3982 35.4783C27.4309 36.1762 26.6784 36.5361 25.9586 36.2308C26.1549 35.9908 26.3076 35.6855 26.5584 35.5437C26.7766 35.4237 27.1037 35.5001 27.4091 35.4783H27.3982Z" fill="#1F3364"/>
<path d="M12.2172 23.1001C12.0318 22.762 11.9773 22.4239 12.3263 22.1731C12.4571 22.0749 12.6643 22.064 12.8388 22.0749C12.8934 22.0749 12.9806 22.2931 12.9697 22.4021C12.9479 22.5766 12.9043 22.8056 12.7843 22.9038C12.6425 23.0238 12.4026 23.0456 12.2063 23.1001H12.2172Z" fill="#1F3364"/>
<path d="M23.5157 27.1462C23.7883 27.0044 24.0501 26.8408 24.3227 26.7317C24.3882 26.699 24.519 26.8081 24.6826 26.8844C24.2573 27.0698 23.941 27.2007 23.6138 27.3425C23.5811 27.277 23.5484 27.2116 23.5157 27.1462Z" fill="#1F3364"/>
<path d="M23.4721 26.7208C23.1994 26.8844 22.9813 27.0153 22.7632 27.1353C22.7305 27.1571 22.6214 27.1353 22.6105 27.1135C22.5887 27.0698 22.5996 26.9717 22.6323 26.9499C22.8613 26.7972 23.0249 26.4809 23.4721 26.7208Z" fill="#1F3364"/>
</svg>
